<mxfile host="app.diagrams.net" modified="2024-07-09T12:50:37.330Z" agent="Mozilla/5.0 (Windows NT 10.0; Win64; x64) AppleWebKit/537.36 (KHTML, like Gecko) Chrome/126.0.0.0 Safari/537.36 Edg/126.0.0.0" etag="Nt6if9YhzB1hZ6VQ1tDg" version="24.6.4" type="device">
  <diagram name="Page-1" id="AIk0Q2GmdtSzgIbApq3y">
    <mxGraphModel dx="927" dy="517" grid="1" gridSize="10" guides="1" tooltips="1" connect="1" arrows="1" fold="1" page="1" pageScale="1" pageWidth="850" pageHeight="1100" math="0" shadow="0">
      <root>
        <mxCell id="0" />
        <mxCell id="1" parent="0" />
        <mxCell id="WOSnY5D1xwaBjITCGNbo-13" value="" style="rounded=0;whiteSpace=wrap;html=1;fillColor=#eeeeee;strokeColor=#36393d;" vertex="1" parent="1">
          <mxGeometry x="1470" y="342.5" width="60" height="80" as="geometry" />
        </mxCell>
        <mxCell id="5yJc1-C0Uq-N8i1GRbMO-1" value="18650 Battery" style="rounded=1;whiteSpace=wrap;html=1;fillColor=#f8cecc;strokeColor=#b85450;" parent="1" vertex="1">
          <mxGeometry x="190" y="200" width="280" height="60" as="geometry" />
        </mxCell>
        <mxCell id="5yJc1-C0Uq-N8i1GRbMO-2" value="+" style="text;html=1;align=center;verticalAlign=middle;whiteSpace=wrap;rounded=0;" parent="1" vertex="1">
          <mxGeometry x="445" y="215" width="25" height="30" as="geometry" />
        </mxCell>
        <mxCell id="5yJc1-C0Uq-N8i1GRbMO-3" value="-" style="text;html=1;align=center;verticalAlign=middle;whiteSpace=wrap;rounded=0;" parent="1" vertex="1">
          <mxGeometry x="190" y="215" width="25" height="30" as="geometry" />
        </mxCell>
        <mxCell id="5yJc1-C0Uq-N8i1GRbMO-5" value="18650 Battery" style="rounded=1;whiteSpace=wrap;html=1;fillColor=#f8cecc;strokeColor=#b85450;" parent="1" vertex="1">
          <mxGeometry x="190" y="270" width="280" height="60" as="geometry" />
        </mxCell>
        <mxCell id="5yJc1-C0Uq-N8i1GRbMO-6" value="-" style="text;html=1;align=center;verticalAlign=middle;whiteSpace=wrap;rounded=0;" parent="1" vertex="1">
          <mxGeometry x="445" y="285" width="25" height="30" as="geometry" />
        </mxCell>
        <mxCell id="5yJc1-C0Uq-N8i1GRbMO-7" value="+" style="text;html=1;align=center;verticalAlign=middle;whiteSpace=wrap;rounded=0;" parent="1" vertex="1">
          <mxGeometry x="190" y="285" width="25" height="30" as="geometry" />
        </mxCell>
        <mxCell id="5yJc1-C0Uq-N8i1GRbMO-8" value="" style="endArrow=none;html=1;rounded=0;" parent="1" edge="1">
          <mxGeometry width="50" height="50" relative="1" as="geometry">
            <mxPoint x="190" y="300" as="sourcePoint" />
            <mxPoint x="150" y="300" as="targetPoint" />
          </mxGeometry>
        </mxCell>
        <mxCell id="5yJc1-C0Uq-N8i1GRbMO-9" value="" style="endArrow=none;html=1;rounded=0;" parent="1" edge="1">
          <mxGeometry width="50" height="50" relative="1" as="geometry">
            <mxPoint x="150" y="230" as="sourcePoint" />
            <mxPoint x="150" y="300" as="targetPoint" />
          </mxGeometry>
        </mxCell>
        <mxCell id="5yJc1-C0Uq-N8i1GRbMO-10" value="" style="endArrow=none;html=1;rounded=0;" parent="1" edge="1">
          <mxGeometry width="50" height="50" relative="1" as="geometry">
            <mxPoint x="190" y="229.66" as="sourcePoint" />
            <mxPoint x="150" y="229.66" as="targetPoint" />
          </mxGeometry>
        </mxCell>
        <mxCell id="5yJc1-C0Uq-N8i1GRbMO-11" value="" style="endArrow=none;html=1;rounded=0;exitX=1;exitY=0.5;exitDx=0;exitDy=0;fillColor=#f8cecc;strokeColor=#b85450;" parent="1" source="5yJc1-C0Uq-N8i1GRbMO-1" edge="1">
          <mxGeometry width="50" height="50" relative="1" as="geometry">
            <mxPoint x="560" y="360" as="sourcePoint" />
            <mxPoint x="570" y="230" as="targetPoint" />
          </mxGeometry>
        </mxCell>
        <mxCell id="5yJc1-C0Uq-N8i1GRbMO-12" value="" style="endArrow=none;html=1;rounded=0;exitX=1;exitY=0.5;exitDx=0;exitDy=0;" parent="1" edge="1">
          <mxGeometry width="50" height="50" relative="1" as="geometry">
            <mxPoint x="470" y="299.65999999999997" as="sourcePoint" />
            <mxPoint x="570" y="299.65999999999997" as="targetPoint" />
          </mxGeometry>
        </mxCell>
        <mxCell id="5yJc1-C0Uq-N8i1GRbMO-13" value="" style="endArrow=none;dashed=1;html=1;rounded=0;fillColor=#d5e8d4;strokeColor=#82b366;" parent="1" edge="1">
          <mxGeometry width="50" height="50" relative="1" as="geometry">
            <mxPoint x="570" y="230" as="sourcePoint" />
            <mxPoint x="640" y="230" as="targetPoint" />
          </mxGeometry>
        </mxCell>
        <mxCell id="5yJc1-C0Uq-N8i1GRbMO-14" value="" style="endArrow=none;dashed=1;html=1;rounded=0;fillColor=#d5e8d4;strokeColor=#82b366;" parent="1" edge="1">
          <mxGeometry width="50" height="50" relative="1" as="geometry">
            <mxPoint x="570" y="299.65999999999997" as="sourcePoint" />
            <mxPoint x="640" y="299.65999999999997" as="targetPoint" />
          </mxGeometry>
        </mxCell>
        <mxCell id="5yJc1-C0Uq-N8i1GRbMO-15" value="100k ohm resistor" style="text;html=1;align=center;verticalAlign=middle;whiteSpace=wrap;rounded=0;" parent="1" vertex="1">
          <mxGeometry x="580" y="200" width="60" height="30" as="geometry" />
        </mxCell>
        <mxCell id="5yJc1-C0Uq-N8i1GRbMO-16" value="47k ohm resistor" style="text;html=1;align=center;verticalAlign=middle;whiteSpace=wrap;rounded=0;" parent="1" vertex="1">
          <mxGeometry x="580" y="270" width="60" height="30" as="geometry" />
        </mxCell>
        <mxCell id="5yJc1-C0Uq-N8i1GRbMO-17" value="" style="endArrow=none;html=1;rounded=0;" parent="1" edge="1">
          <mxGeometry width="50" height="50" relative="1" as="geometry">
            <mxPoint x="540" y="330" as="sourcePoint" />
            <mxPoint x="540" y="300" as="targetPoint" />
          </mxGeometry>
        </mxCell>
        <mxCell id="5yJc1-C0Uq-N8i1GRbMO-18" value="" style="endArrow=none;html=1;rounded=0;entryX=1;entryY=1;entryDx=0;entryDy=0;fillColor=#f8cecc;strokeColor=#b85450;" parent="1" target="5yJc1-C0Uq-N8i1GRbMO-15" edge="1">
          <mxGeometry width="50" height="50" relative="1" as="geometry">
            <mxPoint x="670" y="260" as="sourcePoint" />
            <mxPoint x="610" y="310" as="targetPoint" />
          </mxGeometry>
        </mxCell>
        <mxCell id="5yJc1-C0Uq-N8i1GRbMO-19" value="" style="endArrow=none;html=1;rounded=0;exitX=1;exitY=0.5;exitDx=0;exitDy=0;" parent="1" edge="1">
          <mxGeometry width="50" height="50" relative="1" as="geometry">
            <mxPoint x="640" y="299.99999999999994" as="sourcePoint" />
            <mxPoint x="670" y="260" as="targetPoint" />
          </mxGeometry>
        </mxCell>
        <mxCell id="5yJc1-C0Uq-N8i1GRbMO-20" value="" style="endArrow=none;html=1;rounded=0;fillColor=#f8cecc;strokeColor=#b85450;entryX=0;entryY=0.5;entryDx=0;entryDy=0;" parent="1" target="5yJc1-C0Uq-N8i1GRbMO-24" edge="1">
          <mxGeometry width="50" height="50" relative="1" as="geometry">
            <mxPoint x="670" y="260" as="sourcePoint" />
            <mxPoint x="750" y="260" as="targetPoint" />
          </mxGeometry>
        </mxCell>
        <mxCell id="5yJc1-C0Uq-N8i1GRbMO-21" value="" style="endArrow=none;html=1;rounded=0;exitX=0.001;exitY=0.84;exitDx=0;exitDy=0;exitPerimeter=0;" parent="1" edge="1">
          <mxGeometry width="50" height="50" relative="1" as="geometry">
            <mxPoint x="1070.17" y="332.4" as="sourcePoint" />
            <mxPoint x="540" y="330" as="targetPoint" />
          </mxGeometry>
        </mxCell>
        <mxCell id="5yJc1-C0Uq-N8i1GRbMO-24" value="Raspberry&lt;div&gt;Pi&lt;/div&gt;&lt;div&gt;Pico&lt;/div&gt;" style="rounded=0;whiteSpace=wrap;html=1;fillColor=#d5e8d4;strokeColor=#82b366;" parent="1" vertex="1">
          <mxGeometry x="1070" y="80" width="170" height="360" as="geometry" />
        </mxCell>
        <mxCell id="5yJc1-C0Uq-N8i1GRbMO-25" value="GND" style="text;html=1;align=left;verticalAlign=middle;whiteSpace=wrap;rounded=0;" parent="1" vertex="1">
          <mxGeometry x="1070" y="320" width="60" height="30" as="geometry" />
        </mxCell>
        <mxCell id="5yJc1-C0Uq-N8i1GRbMO-26" value="GP26 (ADC)" style="text;html=1;align=left;verticalAlign=middle;whiteSpace=wrap;rounded=0;" parent="1" vertex="1">
          <mxGeometry x="1070" y="245" width="60" height="30" as="geometry" />
        </mxCell>
        <mxCell id="5yJc1-C0Uq-N8i1GRbMO-27" value="" style="endArrow=none;html=1;rounded=0;" parent="1" edge="1">
          <mxGeometry width="50" height="50" relative="1" as="geometry">
            <mxPoint x="510" y="300" as="sourcePoint" />
            <mxPoint x="510" y="100" as="targetPoint" />
          </mxGeometry>
        </mxCell>
        <mxCell id="5yJc1-C0Uq-N8i1GRbMO-28" value="" style="endArrow=none;html=1;rounded=0;exitX=1;exitY=0.5;exitDx=0;exitDy=0;fillColor=#f8cecc;strokeColor=#b85450;" parent="1" edge="1">
          <mxGeometry width="50" height="50" relative="1" as="geometry">
            <mxPoint x="540" y="230" as="sourcePoint" />
            <mxPoint x="540" y="50" as="targetPoint" />
          </mxGeometry>
        </mxCell>
        <mxCell id="5yJc1-C0Uq-N8i1GRbMO-29" value="LM2596 Buck Converter to 5V" style="rounded=0;whiteSpace=wrap;html=1;fillColor=#dae8fc;strokeColor=#6c8ebf;" parent="1" vertex="1">
          <mxGeometry x="650" y="40" width="210" height="70" as="geometry" />
        </mxCell>
        <mxCell id="5yJc1-C0Uq-N8i1GRbMO-30" value="" style="endArrow=none;html=1;rounded=0;" parent="1" edge="1">
          <mxGeometry width="50" height="50" relative="1" as="geometry">
            <mxPoint x="510" y="100" as="sourcePoint" />
            <mxPoint x="650" y="99.99999999999997" as="targetPoint" />
          </mxGeometry>
        </mxCell>
        <mxCell id="5yJc1-C0Uq-N8i1GRbMO-31" value="" style="endArrow=none;html=1;rounded=0;fillColor=#f8cecc;strokeColor=#b85450;" parent="1" edge="1">
          <mxGeometry width="50" height="50" relative="1" as="geometry">
            <mxPoint x="540" y="50" as="sourcePoint" />
            <mxPoint x="650" y="50" as="targetPoint" />
          </mxGeometry>
        </mxCell>
        <mxCell id="5yJc1-C0Uq-N8i1GRbMO-32" value="+VIN" style="text;html=1;align=left;verticalAlign=middle;whiteSpace=wrap;rounded=0;" parent="1" vertex="1">
          <mxGeometry x="650" y="40" width="60" height="30" as="geometry" />
        </mxCell>
        <mxCell id="5yJc1-C0Uq-N8i1GRbMO-33" value="-VIN" style="text;html=1;align=left;verticalAlign=middle;whiteSpace=wrap;rounded=0;" parent="1" vertex="1">
          <mxGeometry x="650" y="80" width="60" height="30" as="geometry" />
        </mxCell>
        <mxCell id="5yJc1-C0Uq-N8i1GRbMO-34" value="+VOUT" style="text;html=1;align=right;verticalAlign=middle;whiteSpace=wrap;rounded=0;" parent="1" vertex="1">
          <mxGeometry x="800" y="40" width="60" height="30" as="geometry" />
        </mxCell>
        <mxCell id="5yJc1-C0Uq-N8i1GRbMO-35" value="-VOUT" style="text;html=1;align=right;verticalAlign=middle;whiteSpace=wrap;rounded=0;" parent="1" vertex="1">
          <mxGeometry x="800" y="80" width="60" height="30" as="geometry" />
        </mxCell>
        <mxCell id="5yJc1-C0Uq-N8i1GRbMO-37" value="" style="endArrow=none;html=1;rounded=0;exitX=1;exitY=0.5;exitDx=0;exitDy=0;fillColor=#f8cecc;strokeColor=#B85450;" parent="1" source="5yJc1-C0Uq-N8i1GRbMO-34" edge="1">
          <mxGeometry width="50" height="50" relative="1" as="geometry">
            <mxPoint x="1000" y="40" as="sourcePoint" />
            <mxPoint x="1673" y="54" as="targetPoint" />
          </mxGeometry>
        </mxCell>
        <mxCell id="5yJc1-C0Uq-N8i1GRbMO-38" value="" style="endArrow=none;html=1;rounded=0;exitX=1;exitY=0.5;exitDx=0;exitDy=0;fillColor=#f8cecc;strokeColor=#000000;" parent="1" edge="1">
          <mxGeometry width="50" height="50" relative="1" as="geometry">
            <mxPoint x="860" y="94.66" as="sourcePoint" />
            <mxPoint x="1030" y="94" as="targetPoint" />
          </mxGeometry>
        </mxCell>
        <mxCell id="5yJc1-C0Uq-N8i1GRbMO-39" value="" style="endArrow=none;html=1;rounded=0;exitX=1;exitY=0.5;exitDx=0;exitDy=0;fillColor=#f8cecc;strokeColor=#b85450;" parent="1" edge="1">
          <mxGeometry width="50" height="50" relative="1" as="geometry">
            <mxPoint x="940" y="55" as="sourcePoint" />
            <mxPoint x="940" y="120" as="targetPoint" />
          </mxGeometry>
        </mxCell>
        <mxCell id="5yJc1-C0Uq-N8i1GRbMO-40" value="" style="endArrow=none;html=1;rounded=0;fillColor=#f8cecc;strokeColor=#b85450;entryX=0.004;entryY=0.111;entryDx=0;entryDy=0;entryPerimeter=0;" parent="1" target="5yJc1-C0Uq-N8i1GRbMO-24" edge="1">
          <mxGeometry width="50" height="50" relative="1" as="geometry">
            <mxPoint x="940" y="120" as="sourcePoint" />
            <mxPoint x="990" y="165" as="targetPoint" />
          </mxGeometry>
        </mxCell>
        <mxCell id="5yJc1-C0Uq-N8i1GRbMO-41" value="VSYS" style="text;html=1;align=left;verticalAlign=middle;whiteSpace=wrap;rounded=0;" parent="1" vertex="1">
          <mxGeometry x="1070" y="104" width="60" height="30" as="geometry" />
        </mxCell>
        <mxCell id="5yJc1-C0Uq-N8i1GRbMO-42" value="" style="endArrow=none;html=1;rounded=0;fillColor=#f8cecc;strokeColor=#000000;" parent="1" edge="1">
          <mxGeometry width="50" height="50" relative="1" as="geometry">
            <mxPoint x="1030" y="94" as="sourcePoint" />
            <mxPoint x="1030" y="70" as="targetPoint" />
          </mxGeometry>
        </mxCell>
        <mxCell id="5yJc1-C0Uq-N8i1GRbMO-43" value="" style="endArrow=none;html=1;rounded=0;fillColor=#f8cecc;strokeColor=#000000;" parent="1" edge="1">
          <mxGeometry width="50" height="50" relative="1" as="geometry">
            <mxPoint x="1030" y="70" as="sourcePoint" />
            <mxPoint x="1653" y="70" as="targetPoint" />
          </mxGeometry>
        </mxCell>
        <mxCell id="5yJc1-C0Uq-N8i1GRbMO-44" value="" style="rounded=0;whiteSpace=wrap;html=1;fillColor=#f5f5f5;gradientColor=#b3b3b3;strokeColor=#2B2B2B;" parent="1" vertex="1">
          <mxGeometry x="1643" y="460" width="40" height="360" as="geometry" />
        </mxCell>
        <mxCell id="5yJc1-C0Uq-N8i1GRbMO-47" value="+5V" style="text;html=1;align=left;verticalAlign=middle;whiteSpace=wrap;rounded=0;fontSize=8;rotation=90;" parent="1" vertex="1">
          <mxGeometry x="1643" y="490" width="60" height="10" as="geometry" />
        </mxCell>
        <mxCell id="5yJc1-C0Uq-N8i1GRbMO-48" value="GND" style="text;html=1;align=left;verticalAlign=middle;whiteSpace=wrap;rounded=0;fontSize=8;rotation=90;" parent="1" vertex="1">
          <mxGeometry x="1623" y="490" width="60" height="10" as="geometry" />
        </mxCell>
        <mxCell id="5yJc1-C0Uq-N8i1GRbMO-49" value="Data" style="text;html=1;align=left;verticalAlign=middle;whiteSpace=wrap;rounded=0;fontSize=8;rotation=90;" parent="1" vertex="1">
          <mxGeometry x="1633" y="490" width="60" height="10" as="geometry" />
        </mxCell>
        <mxCell id="5yJc1-C0Uq-N8i1GRbMO-87" value="" style="endArrow=none;html=1;rounded=0;fillColor=#f8cecc;strokeColor=#B85450;" parent="1" edge="1">
          <mxGeometry width="50" height="50" relative="1" as="geometry">
            <mxPoint x="1672.9999999999998" y="460" as="sourcePoint" />
            <mxPoint x="1673.1999999999998" y="54" as="targetPoint" />
          </mxGeometry>
        </mxCell>
        <mxCell id="5yJc1-C0Uq-N8i1GRbMO-94" value="" style="endArrow=none;html=1;rounded=0;fillColor=#f8cecc;strokeColor=#000000;" parent="1" edge="1">
          <mxGeometry width="50" height="50" relative="1" as="geometry">
            <mxPoint x="1652.58" y="460" as="sourcePoint" />
            <mxPoint x="1652.58" y="70" as="targetPoint" />
          </mxGeometry>
        </mxCell>
        <mxCell id="5yJc1-C0Uq-N8i1GRbMO-96" value="" style="endArrow=none;html=1;rounded=0;fillColor=#1ba1e2;strokeColor=#006EAF;" parent="1" edge="1">
          <mxGeometry width="50" height="50" relative="1" as="geometry">
            <mxPoint x="1662.8" y="460" as="sourcePoint" />
            <mxPoint x="1663" y="100" as="targetPoint" />
          </mxGeometry>
        </mxCell>
        <mxCell id="5yJc1-C0Uq-N8i1GRbMO-97" value="" style="endArrow=none;html=1;rounded=0;fillColor=#1ba1e2;strokeColor=#006EAF;exitX=1.006;exitY=0.054;exitDx=0;exitDy=0;exitPerimeter=0;" parent="1" source="5yJc1-C0Uq-N8i1GRbMO-24" edge="1">
          <mxGeometry width="50" height="50" relative="1" as="geometry">
            <mxPoint x="1310" y="100" as="sourcePoint" />
            <mxPoint x="1663" y="100" as="targetPoint" />
          </mxGeometry>
        </mxCell>
        <mxCell id="5yJc1-C0Uq-N8i1GRbMO-98" value="GPXX" style="text;html=1;align=right;verticalAlign=middle;whiteSpace=wrap;rounded=0;" parent="1" vertex="1">
          <mxGeometry x="1180" y="85" width="60" height="30" as="geometry" />
        </mxCell>
        <mxCell id="5yJc1-C0Uq-N8i1GRbMO-126" value="A 100k ohm resistor on the positive terminal, and 47k ohm resistor on the negative terminal will cut voltage to 32% of the actual reflected voltage&lt;div style=&quot;font-size: 8px;&quot;&gt;&lt;br style=&quot;font-size: 8px;&quot;&gt;&lt;/div&gt;&lt;div style=&quot;font-size: 8px;&quot;&gt;8.4v (two 18650&#39;s @ 100%, in series) --&amp;gt; 2.69v&lt;/div&gt;&lt;div style=&quot;font-size: 8px;&quot;&gt;6.0v (two 18650&#39;s @ 0%, in series) --&amp;gt; 1.92v&lt;/div&gt;&lt;div style=&quot;font-size: 8px;&quot;&gt;&lt;br&gt;&lt;/div&gt;&lt;div style=&quot;&quot;&gt;&lt;font style=&quot;font-size: 6px;&quot;&gt;See this Voltage Divider Calculator for further info:&amp;nbsp;https://ohmslawcalculator.com/voltage-divider-calculator&lt;/font&gt;&lt;/div&gt;" style="text;html=1;align=left;verticalAlign=middle;whiteSpace=wrap;rounded=0;fontSize=8;fillColor=#eeeeee;strokeColor=#36393d;opacity=50;glass=1;fontColor=#696969;" parent="1" vertex="1">
          <mxGeometry x="670" y="152.5" width="190" height="92.5" as="geometry" />
        </mxCell>
        <mxCell id="WOSnY5D1xwaBjITCGNbo-1" value="" style="rounded=0;whiteSpace=wrap;html=1;" vertex="1" parent="1">
          <mxGeometry x="650" y="370" width="60" height="60" as="geometry" />
        </mxCell>
        <mxCell id="WOSnY5D1xwaBjITCGNbo-2" value="" style="ellipse;whiteSpace=wrap;html=1;aspect=fixed;fillColor=#f5f5f5;fontColor=#333333;strokeColor=#666666;" vertex="1" parent="1">
          <mxGeometry x="655" y="375" width="50" height="50" as="geometry" />
        </mxCell>
        <mxCell id="WOSnY5D1xwaBjITCGNbo-4" value="" style="rounded=0;whiteSpace=wrap;html=1;fillColor=#bac8d3;strokeColor=#23445d;" vertex="1" parent="1">
          <mxGeometry x="710" y="370" width="20" height="10" as="geometry" />
        </mxCell>
        <mxCell id="WOSnY5D1xwaBjITCGNbo-5" value="" style="rounded=0;whiteSpace=wrap;html=1;fillColor=#bac8d3;strokeColor=#23445d;" vertex="1" parent="1">
          <mxGeometry x="710" y="420" width="20" height="10" as="geometry" />
        </mxCell>
        <mxCell id="WOSnY5D1xwaBjITCGNbo-6" value="" style="endArrow=none;html=1;rounded=0;exitX=1;exitY=0.5;exitDx=0;exitDy=0;entryX=-0.01;entryY=0.823;entryDx=0;entryDy=0;entryPerimeter=0;fillColor=#b1ddf0;strokeColor=#10739e;" edge="1" parent="1" source="WOSnY5D1xwaBjITCGNbo-4" target="5yJc1-C0Uq-N8i1GRbMO-24">
          <mxGeometry width="50" height="50" relative="1" as="geometry">
            <mxPoint x="770" y="390" as="sourcePoint" />
            <mxPoint x="820" y="340" as="targetPoint" />
          </mxGeometry>
        </mxCell>
        <mxCell id="WOSnY5D1xwaBjITCGNbo-7" value="GND" style="text;html=1;align=left;verticalAlign=middle;whiteSpace=wrap;rounded=0;" vertex="1" parent="1">
          <mxGeometry x="1070" y="360" width="60" height="30" as="geometry" />
        </mxCell>
        <mxCell id="WOSnY5D1xwaBjITCGNbo-9" value="" style="endArrow=none;html=1;rounded=0;exitX=1;exitY=0.5;exitDx=0;exitDy=0;fillColor=#b1ddf0;strokeColor=#10739e;targetPerimeterSpacing=0;" edge="1" parent="1">
          <mxGeometry width="50" height="50" relative="1" as="geometry">
            <mxPoint x="730" y="425.3200000000001" as="sourcePoint" />
            <mxPoint x="1070" y="425" as="targetPoint" />
          </mxGeometry>
        </mxCell>
        <mxCell id="WOSnY5D1xwaBjITCGNbo-10" value="GPXX" style="text;html=1;align=left;verticalAlign=middle;whiteSpace=wrap;rounded=0;" vertex="1" parent="1">
          <mxGeometry x="1070" y="410" width="60" height="30" as="geometry" />
        </mxCell>
        <mxCell id="WOSnY5D1xwaBjITCGNbo-11" value="" style="ellipse;whiteSpace=wrap;html=1;aspect=fixed;fillColor=#eeeeee;strokeColor=#36393d;" vertex="1" parent="1">
          <mxGeometry x="1490" y="335" width="95" height="95" as="geometry" />
        </mxCell>
        <mxCell id="WOSnY5D1xwaBjITCGNbo-12" value="" style="ellipse;whiteSpace=wrap;html=1;aspect=fixed;fillColor=#454545;" vertex="1" parent="1">
          <mxGeometry x="1512.5" y="357.5" width="50" height="50" as="geometry" />
        </mxCell>
        <mxCell id="WOSnY5D1xwaBjITCGNbo-14" value="" style="rounded=0;whiteSpace=wrap;html=1;" vertex="1" parent="1">
          <mxGeometry x="1430" y="342.5" width="40" height="10" as="geometry" />
        </mxCell>
        <mxCell id="WOSnY5D1xwaBjITCGNbo-15" value="" style="rounded=0;whiteSpace=wrap;html=1;" vertex="1" parent="1">
          <mxGeometry x="1430" y="412.5" width="40" height="10" as="geometry" />
        </mxCell>
        <mxCell id="WOSnY5D1xwaBjITCGNbo-16" value="" style="rounded=0;whiteSpace=wrap;html=1;" vertex="1" parent="1">
          <mxGeometry x="1430" y="377.5" width="40" height="10" as="geometry" />
        </mxCell>
        <mxCell id="WOSnY5D1xwaBjITCGNbo-17" value="" style="endArrow=none;html=1;rounded=0;strokeColor=#FF2B2B;" edge="1" parent="1">
          <mxGeometry width="50" height="50" relative="1" as="geometry">
            <mxPoint x="1240" y="347.3" as="sourcePoint" />
            <mxPoint x="1430" y="347.3" as="targetPoint" />
          </mxGeometry>
        </mxCell>
        <mxCell id="WOSnY5D1xwaBjITCGNbo-18" value="" style="endArrow=none;html=1;rounded=0;fillColor=#cce5ff;strokeColor=#372EBA;" edge="1" parent="1">
          <mxGeometry width="50" height="50" relative="1" as="geometry">
            <mxPoint x="1240" y="382.3" as="sourcePoint" />
            <mxPoint x="1430" y="382.3" as="targetPoint" />
          </mxGeometry>
        </mxCell>
        <mxCell id="WOSnY5D1xwaBjITCGNbo-19" value="" style="endArrow=none;html=1;rounded=0;" edge="1" parent="1">
          <mxGeometry width="50" height="50" relative="1" as="geometry">
            <mxPoint x="1240" y="417.3" as="sourcePoint" />
            <mxPoint x="1430" y="417.3" as="targetPoint" />
          </mxGeometry>
        </mxCell>
        <mxCell id="WOSnY5D1xwaBjITCGNbo-20" value="3.3V" style="text;html=1;align=right;verticalAlign=middle;whiteSpace=wrap;rounded=0;" vertex="1" parent="1">
          <mxGeometry x="1180" y="332.5" width="60" height="30" as="geometry" />
        </mxCell>
        <mxCell id="WOSnY5D1xwaBjITCGNbo-21" value="GP28" style="text;html=1;align=right;verticalAlign=middle;whiteSpace=wrap;rounded=0;" vertex="1" parent="1">
          <mxGeometry x="1180" y="367.5" width="60" height="30" as="geometry" />
        </mxCell>
        <mxCell id="WOSnY5D1xwaBjITCGNbo-22" value="GND" style="text;html=1;align=right;verticalAlign=middle;whiteSpace=wrap;rounded=0;" vertex="1" parent="1">
          <mxGeometry x="1180" y="402.5" width="60" height="30" as="geometry" />
        </mxCell>
        <mxCell id="WOSnY5D1xwaBjITCGNbo-23" value="B10K Potentiometer" style="text;html=1;align=center;verticalAlign=middle;whiteSpace=wrap;rounded=0;fontSize=9;fontStyle=2" vertex="1" parent="1">
          <mxGeometry x="1471.25" y="319" width="132.5" height="15" as="geometry" />
        </mxCell>
        <mxCell id="WOSnY5D1xwaBjITCGNbo-24" value="WS2812B Strand" style="text;html=1;align=center;verticalAlign=middle;whiteSpace=wrap;rounded=0;fontSize=9;fontStyle=2;rotation=-90;" vertex="1" parent="1">
          <mxGeometry x="1568" y="620" width="132.5" height="15" as="geometry" />
        </mxCell>
        <mxCell id="WOSnY5D1xwaBjITCGNbo-25" value="Tactile push button switch" style="text;html=1;align=center;verticalAlign=middle;whiteSpace=wrap;rounded=0;fontSize=9;fontStyle=2" vertex="1" parent="1">
          <mxGeometry x="613.75" y="355" width="132.5" height="15" as="geometry" />
        </mxCell>
      </root>
    </mxGraphModel>
  </diagram>
</mxfile>
